<mxfile host="app.diagrams.net" modified="2021-10-09T13:48:58.460Z" agent="5.0 (Windows NT 10.0; Win64; x64) AppleWebKit/537.36 (KHTML, like Gecko) Chrome/94.0.4606.71 Safari/537.36" etag="pPkb9YqKwIBeyc-OM3-0" version="15.5.0" type="github">
  <diagram id="M50BwaCGrvoGS2MA5xGi" name="Page-1">
    <mxGraphModel dx="868" dy="482" grid="1" gridSize="10" guides="1" tooltips="1" connect="1" arrows="1" fold="1" page="1" pageScale="1" pageWidth="827" pageHeight="1169" math="0" shadow="0">
      <root>
        <mxCell id="0" />
        <mxCell id="1" parent="0" />
        <mxCell id="SWj3AOTanfV3l0cvkLlD-3" value="CONTAINER A&lt;br&gt;(SENDER)" style="shape=cube;whiteSpace=wrap;html=1;boundedLbl=1;backgroundOutline=1;darkOpacity=0.05;darkOpacity2=0.1;rounded=1;fontFamily=Helvetica;align=center;verticalAlign=top;fillColor=#dae8fc;strokeColor=#6c8ebf;" vertex="1" parent="1">
          <mxGeometry x="14" y="40" width="376" height="430" as="geometry" />
        </mxCell>
        <mxCell id="SWj3AOTanfV3l0cvkLlD-4" value="CONTAINER B&lt;br&gt;(RECEIVER)" style="shape=cube;whiteSpace=wrap;html=1;boundedLbl=1;backgroundOutline=1;darkOpacity=0.05;darkOpacity2=0.1;rounded=1;fontFamily=Helvetica;align=center;verticalAlign=top;fillColor=#dae8fc;strokeColor=#6c8ebf;" vertex="1" parent="1">
          <mxGeometry x="470" y="40" width="340" height="430" as="geometry" />
        </mxCell>
        <mxCell id="SWj3AOTanfV3l0cvkLlD-51" value="xml_file_sync()" style="edgeStyle=orthogonalEdgeStyle;rounded=0;orthogonalLoop=1;jettySize=auto;html=1;exitX=0.5;exitY=1;exitDx=0;exitDy=0;entryX=0.5;entryY=0;entryDx=0;entryDy=0;fontFamily=Helvetica;verticalAlign=top;" edge="1" parent="1" source="SWj3AOTanfV3l0cvkLlD-5" target="SWj3AOTanfV3l0cvkLlD-47">
          <mxGeometry x="-0.6" y="-40" relative="1" as="geometry">
            <mxPoint as="offset" />
          </mxGeometry>
        </mxCell>
        <mxCell id="SWj3AOTanfV3l0cvkLlD-5" value="json_file" style="rounded=0;whiteSpace=wrap;html=1;fontFamily=Helvetica;align=center;verticalAlign=middle;" vertex="1" parent="1">
          <mxGeometry x="60" y="110" width="120" height="60" as="geometry" />
        </mxCell>
        <mxCell id="SWj3AOTanfV3l0cvkLlD-9" value="xml_file" style="rounded=0;whiteSpace=wrap;html=1;fontFamily=Helvetica;align=center;verticalAlign=middle;" vertex="1" parent="1">
          <mxGeometry x="60" y="370" width="120" height="60" as="geometry" />
        </mxCell>
        <mxCell id="SWj3AOTanfV3l0cvkLlD-30" value="send_xml()" style="edgeStyle=orthogonalEdgeStyle;shape=flexArrow;rounded=0;orthogonalLoop=1;jettySize=auto;html=1;exitX=1;exitY=0.75;exitDx=0;exitDy=0;entryX=0;entryY=0.75;entryDx=0;entryDy=0;fontFamily=Helvetica;verticalAlign=top;" edge="1" parent="1" source="SWj3AOTanfV3l0cvkLlD-10">
          <mxGeometry x="-0.125" relative="1" as="geometry">
            <mxPoint x="520" y="325" as="targetPoint" />
            <mxPoint as="offset" />
          </mxGeometry>
        </mxCell>
        <mxCell id="SWj3AOTanfV3l0cvkLlD-10" value="/tmp/encryption" style="rounded=0;whiteSpace=wrap;html=1;fontFamily=Helvetica;align=center;verticalAlign=middle;" vertex="1" parent="1">
          <mxGeometry x="240" y="280" width="120" height="60" as="geometry" />
        </mxCell>
        <mxCell id="SWj3AOTanfV3l0cvkLlD-26" value="encrypt_message()" style="edgeStyle=orthogonalEdgeStyle;rounded=0;orthogonalLoop=1;jettySize=auto;html=1;exitX=0;exitY=0.5;exitDx=0;exitDy=0;fontFamily=Helvetica;verticalAlign=top;" edge="1" parent="1" source="SWj3AOTanfV3l0cvkLlD-11">
          <mxGeometry x="-0.8824" y="40" relative="1" as="geometry">
            <mxPoint x="180" y="310" as="targetPoint" />
            <Array as="points">
              <mxPoint x="180" y="200" />
            </Array>
            <mxPoint as="offset" />
          </mxGeometry>
        </mxCell>
        <mxCell id="SWj3AOTanfV3l0cvkLlD-11" value="/var/key/secret.key" style="rounded=0;whiteSpace=wrap;html=1;fontFamily=Helvetica;align=center;verticalAlign=middle;" vertex="1" parent="1">
          <mxGeometry x="240" y="170" width="120" height="60" as="geometry" />
        </mxCell>
        <mxCell id="SWj3AOTanfV3l0cvkLlD-31" value="" style="edgeStyle=orthogonalEdgeStyle;shape=flexArrow;rounded=0;orthogonalLoop=1;jettySize=auto;html=1;exitX=0;exitY=0.25;exitDx=0;exitDy=0;entryX=1;entryY=0.25;entryDx=0;entryDy=0;fontFamily=Helvetica;verticalAlign=top;" edge="1" parent="1" target="SWj3AOTanfV3l0cvkLlD-10">
          <mxGeometry x="0.125" y="-25" relative="1" as="geometry">
            <mxPoint x="520" y="295" as="sourcePoint" />
            <mxPoint as="offset" />
          </mxGeometry>
        </mxCell>
        <mxCell id="SWj3AOTanfV3l0cvkLlD-44" value="decrypt_message()" style="rounded=0;orthogonalLoop=1;jettySize=auto;html=1;exitX=0.5;exitY=1;exitDx=0;exitDy=0;entryX=0.5;entryY=0;entryDx=0;entryDy=0;fontFamily=Helvetica;verticalAlign=top;edgeStyle=orthogonalEdgeStyle;" edge="1" parent="1" source="SWj3AOTanfV3l0cvkLlD-27" target="SWj3AOTanfV3l0cvkLlD-42">
          <mxGeometry x="-0.5" y="-10" relative="1" as="geometry">
            <Array as="points">
              <mxPoint x="650" y="210" />
              <mxPoint x="600" y="210" />
            </Array>
            <mxPoint x="10" y="10" as="offset" />
          </mxGeometry>
        </mxCell>
        <mxCell id="SWj3AOTanfV3l0cvkLlD-27" value="/var/key/secret.key" style="rounded=0;whiteSpace=wrap;html=1;fontFamily=Helvetica;align=center;verticalAlign=middle;" vertex="1" parent="1">
          <mxGeometry x="590" y="110" width="120" height="60" as="geometry" />
        </mxCell>
        <mxCell id="SWj3AOTanfV3l0cvkLlD-42" value="" style="triangle;whiteSpace=wrap;html=1;rounded=1;shadow=1;glass=1;sketch=1;fontFamily=Helvetica;align=center;verticalAlign=top;" vertex="1" parent="1">
          <mxGeometry x="520" y="250" width="160" height="120" as="geometry" />
        </mxCell>
        <mxCell id="SWj3AOTanfV3l0cvkLlD-43" value="receiving_xml()&lt;br&gt;" style="edgeStyle=entityRelationEdgeStyle;rounded=0;orthogonalLoop=1;jettySize=auto;html=1;entryX=0;entryY=0.346;entryDx=0;entryDy=0;fontFamily=Helvetica;verticalAlign=top;shape=flexArrow;entryPerimeter=0;dashed=1;" edge="1" parent="1" target="SWj3AOTanfV3l0cvkLlD-42">
          <mxGeometry x="0.3907" y="-50" relative="1" as="geometry">
            <mxPoint x="520" y="330" as="sourcePoint" />
            <mxPoint x="50" y="50" as="offset" />
          </mxGeometry>
        </mxCell>
        <mxCell id="SWj3AOTanfV3l0cvkLlD-45" value="xml_file" style="rounded=0;whiteSpace=wrap;html=1;fontFamily=Helvetica;align=center;verticalAlign=middle;" vertex="1" parent="1">
          <mxGeometry x="680" y="280" width="120" height="60" as="geometry" />
        </mxCell>
        <mxCell id="SWj3AOTanfV3l0cvkLlD-50" value="json_to_xml()" style="edgeStyle=orthogonalEdgeStyle;rounded=0;orthogonalLoop=1;jettySize=auto;html=1;exitX=0.5;exitY=1;exitDx=0;exitDy=0;fontFamily=Helvetica;verticalAlign=top;" edge="1" parent="1" source="SWj3AOTanfV3l0cvkLlD-47" target="SWj3AOTanfV3l0cvkLlD-9">
          <mxGeometry x="-0.2" y="-40" relative="1" as="geometry">
            <mxPoint as="offset" />
          </mxGeometry>
        </mxCell>
        <mxCell id="SWj3AOTanfV3l0cvkLlD-47" value="JSON to transform" style="ellipse;whiteSpace=wrap;html=1;rounded=1;shadow=1;glass=1;sketch=1;fontFamily=Helvetica;align=center;verticalAlign=middle;" vertex="1" parent="1">
          <mxGeometry x="75" y="220" width="90" height="50" as="geometry" />
        </mxCell>
        <mxCell id="SWj3AOTanfV3l0cvkLlD-53" value="create_encryption()" style="endArrow=classic;html=1;rounded=0;fontFamily=Helvetica;verticalAlign=top;edgeStyle=orthogonalEdgeStyle;entryX=0;entryY=0.5;entryDx=0;entryDy=0;" edge="1" parent="1" target="SWj3AOTanfV3l0cvkLlD-10">
          <mxGeometry width="50" height="50" relative="1" as="geometry">
            <mxPoint x="120" y="310" as="sourcePoint" />
            <mxPoint x="490" y="250" as="targetPoint" />
          </mxGeometry>
        </mxCell>
      </root>
    </mxGraphModel>
  </diagram>
</mxfile>
